<svg width="12" height="12" viewBox="0 0 12 12" fill="none" xmlns="http://www.w3.org/2000/svg">
<g clip-path="url(#clip0_1891_1813)">
<path d="M11.5431 9.91116L11.2217 7.2433C11.211 7.15491 11.1025 7.11741 11.0395 7.18035L10.2453 7.97589L6.61185 4.34375C6.52748 4.26071 6.39221 4.26071 6.30917 4.34375L4.94578 5.7058L1.23998 2C1.21984 1.98006 1.19265 1.96887 1.16431 1.96887C1.13597 1.96887 1.10877 1.98006 1.08864 2L0.485959 2.60535C0.466019 2.62549 0.454834 2.65268 0.454834 2.68102C0.454834 2.70936 0.466019 2.73656 0.485959 2.75669L4.79444 7.06785C4.87748 7.15223 5.01408 7.15223 5.09712 7.06785L6.46051 5.7058L9.48864 8.73259L8.69444 9.52678C8.68028 9.54101 8.67039 9.55894 8.66591 9.57851C8.66143 9.59808 8.66253 9.61851 8.66909 9.63749C8.67565 9.65647 8.6874 9.67322 8.70301 9.68585C8.71862 9.69848 8.73746 9.70647 8.75739 9.70893L11.4252 10.0304C11.4935 10.0397 11.5525 9.9808 11.5431 9.91116Z" fill="#FAAD14"/>
</g>
<defs>
<clipPath id="clip0_1891_1813">
<rect width="12" height="12" fill="white"/>
</clipPath>
</defs>
</svg>
