<svg width="12" height="12" viewBox="0 0 12 12" fill="none" xmlns="http://www.w3.org/2000/svg">
<g clip-path="url(#clip0_1891_16)">
<path d="M11.4242 1.96986L8.75629 2.29129C8.6679 2.302 8.6304 2.41048 8.69335 2.47343L9.48754 3.26763L6.46076 6.29441L5.09737 4.93236C5.01299 4.84798 4.87772 4.84932 4.79469 4.93236L0.486203 9.24218C0.466264 9.26232 0.455078 9.28951 0.455078 9.31785C0.455078 9.34619 0.466264 9.37338 0.486203 9.39352L1.08888 9.99888C1.1304 10.0404 1.1987 10.0404 1.24022 9.99888L4.94603 6.29441L6.30808 7.65647C6.39245 7.7395 6.52772 7.7395 6.61076 7.65647L10.2456 4.02432L11.0398 4.81852C11.054 4.83268 11.0719 4.84256 11.0915 4.84705C11.1111 4.85153 11.1315 4.85043 11.1505 4.84387C11.1695 4.83731 11.1862 4.82556 11.1988 4.80995C11.2115 4.79434 11.2195 4.7755 11.2219 4.75557L11.5433 2.08771C11.5527 2.01941 11.4938 1.96048 11.4242 1.96986Z" fill="#1890FF"/>
</g>
<defs>
<clipPath id="clip0_1891_16">
<rect width="12" height="12" fill="white"/>
</clipPath>
</defs>
</svg>
