<svg width="32" height="32" viewBox="0 0 32 32" fill="none" xmlns="http://www.w3.org/2000/svg">
<rect x="0.00195312" y="0.000366211" width="32.0002" height="32.0002" rx="16.0001" fill="#BFBFBF"/>
<g clip-path="url(#clip0_1921_103)">
<path d="M22.0583 12.3175L19.0177 14.1909L16.1021 10.3019C16.0903 10.2862 16.0751 10.2735 16.0576 10.2648C16.0401 10.256 16.0208 10.2515 16.0013 10.2515C15.9817 10.2515 15.9624 10.256 15.9449 10.2648C15.9274 10.2735 15.9122 10.2862 15.9005 10.3019L12.9864 14.1909L9.94424 12.3175C9.85517 12.2628 9.73955 12.3363 9.75361 12.4409L10.9474 21.5128C10.9645 21.6363 11.0708 21.7316 11.1974 21.7316H20.8083C20.9333 21.7316 21.0411 21.6378 21.0567 21.5128L22.2505 12.4409C22.263 12.3363 22.1489 12.2628 22.0583 12.3175ZM20.0895 20.6628H11.913L11.0724 14.2659L13.2567 15.6113L16.002 11.9488L18.7474 15.6113L20.9317 14.2659L20.0895 20.6628ZM16.002 15.9503C15.0317 15.9503 14.2427 16.7394 14.2427 17.7097C14.2427 18.68 15.0317 19.4691 16.002 19.4691C16.9724 19.4691 17.7614 18.68 17.7614 17.7097C17.7614 16.7394 16.9724 15.9503 16.002 15.9503ZM16.002 18.4644C15.5864 18.4644 15.2489 18.1269 15.2489 17.7097C15.2489 17.2941 15.5864 16.955 16.002 16.955C16.4177 16.955 16.7552 17.2925 16.7552 17.7097C16.7552 18.1253 16.4177 18.4644 16.002 18.4644Z" fill="white"/>
</g>
<defs>
<clipPath id="clip0_1921_103">
<rect width="14" height="14" fill="white" transform="translate(9.00195 9.00037)"/>
</clipPath>
</defs>
</svg>
