<svg width="32" height="32" viewBox="0 0 32 32" fill="none" xmlns="http://www.w3.org/2000/svg">
<rect x="0.00219727" y="0.000366211" width="32.0002" height="32.0002" rx="16.0001" fill="#BFBFBF"/>
<g clip-path="url(#clip0_1921_774)">
<path d="M21.7837 12.2539V10.2523C21.7837 9.97576 21.5603 9.75232 21.2837 9.75232H10.7212C10.4446 9.75232 10.2212 9.97576 10.2212 10.2523V12.2539C9.96026 12.2695 9.75245 12.4867 9.75245 12.7523V14.8101C9.75145 15.1883 9.82803 15.5627 9.97745 15.9101C10.0446 16.0695 10.1275 16.2195 10.2212 16.3617V21.7523C10.2212 22.0273 10.4446 22.2523 10.7212 22.2523H21.2837C21.5603 22.2523 21.7837 22.0289 21.7837 21.7523V16.3617C21.8789 16.2191 21.9605 16.068 22.0275 15.9101C22.1759 15.5617 22.2525 15.1914 22.2525 14.8101V12.7523C22.2525 12.4867 22.0446 12.2695 21.7837 12.2539ZM11.3462 10.8773H20.6587V12.2523H11.3462V10.8773ZM17.0025 21.1289H15.0025V19.5023H17.0025V21.1289ZM20.6587 21.1289H18.0025V19.0023C18.0025 18.7258 17.779 18.5023 17.5025 18.5023H14.5025C14.2259 18.5023 14.0025 18.7258 14.0025 19.0023V21.1289H11.3462V17.3445C11.3915 17.3664 11.4384 17.3883 11.4868 17.407C11.8353 17.5539 12.2056 17.6273 12.5868 17.6273C12.9681 17.6273 13.3368 17.5539 13.6868 17.407C13.9025 17.3164 14.1056 17.2008 14.2915 17.0617C14.2946 17.0601 14.2978 17.0601 14.3009 17.0617C14.4874 17.2013 14.6905 17.3173 14.9056 17.407C15.254 17.5539 15.6243 17.6273 16.0056 17.6273C16.3868 17.6273 16.7556 17.5539 17.1056 17.407C17.3212 17.3164 17.5243 17.2008 17.7103 17.0617C17.7134 17.0601 17.7165 17.0601 17.7196 17.0617C17.9062 17.2013 18.1093 17.3173 18.3243 17.407C18.6728 17.5539 19.0431 17.6273 19.4243 17.6273C19.8056 17.6273 20.1743 17.5539 20.5243 17.407C20.5712 17.3867 20.6181 17.3664 20.665 17.3445V21.1289H20.6587ZM21.1275 14.8101C21.1275 15.7445 20.3618 16.5023 19.4196 16.5023C18.7821 16.5023 18.2259 16.157 17.9321 15.6445C17.8868 15.5664 17.8056 15.5179 17.715 15.5179H17.7056C17.6165 15.5179 17.5337 15.5664 17.4884 15.6445C17.3385 15.9059 17.122 16.123 16.861 16.2737C16.6 16.4244 16.3038 16.5032 16.0025 16.5023C15.3665 16.5023 14.8118 16.1586 14.5181 15.6476C14.4712 15.5679 14.3868 15.5179 14.2946 15.5179C14.2025 15.5179 14.1165 15.5679 14.0712 15.6476C13.9204 15.9081 13.7037 16.1242 13.4428 16.2742C13.182 16.4243 12.8862 16.5029 12.5853 16.5023C11.6431 16.5023 10.8775 15.7445 10.8775 14.8101V13.3851C10.8775 13.3804 10.8806 13.3773 10.8853 13.3773H21.1196C21.1243 13.3773 21.1275 13.3804 21.1275 13.3851V14.8101Z" fill="white"/>
</g>
<defs>
<clipPath id="clip0_1921_774">
<rect width="14" height="14" fill="white" transform="translate(9.0022 9.00037)"/>
</clipPath>
</defs>
</svg>
